HIERARCHY
ROOT Hips
{
    OFFSET   0.000000   0.000000   0.000000
    CHANNELS 6 Xposition Yposition Zposition Zrotation Xrotation Yrotation
    JOINT Chest
    {
        OFFSET   0.000000   8.007230   0.000000
        CHANNELS 3 Zrotation Xrotation Yrotation
        JOINT Chest2
        {
            OFFSET   0.000000  22.077100   0.000000
            CHANNELS 3 Zrotation Xrotation Yrotation
            JOINT Neck
            {
                OFFSET   0.000000  23.254800  -0.000021
                CHANNELS 3 Zrotation Xrotation Yrotation
                JOINT Head
                {
                    OFFSET   0.000000  14.370000   1.956610
                    CHANNELS 3 Zrotation Xrotation Yrotation
                    End Site
                    {
                        OFFSET   0.000000  19.566000   0.000000
                    }
                }
            }
            JOINT LeftCollar
            {
                OFFSET   3.911900  19.017000  -0.467063
                CHANNELS 3 Zrotation Xrotation Yrotation
                JOINT LeftShoulder
                {
                    OFFSET  10.383700   0.000000   0.000000
                    CHANNELS 3 Zrotation Xrotation Yrotation
                    JOINT LeftElbow
                    {
                        OFFSET  26.662100   0.001529   0.000325
                        CHANNELS 3 Zrotation Xrotation Yrotation
                        JOINT LeftWrist
                        {
                            OFFSET  28.869000  -0.000011  -0.000096
                            CHANNELS 3 Zrotation Xrotation Yrotation
                            JOINT LeftFinger0
                            {
                                OFFSET   2.044650  -2.323460   3.252850
                                CHANNELS 3 Zrotation Xrotation Yrotation
                                JOINT LeftFinger01
                                {
                                    OFFSET   3.088130   0.000000   0.000000
                                    CHANNELS 3 Zrotation Xrotation Yrotation
                                    JOINT LeftFinger02
                                    {
                                        OFFSET   2.639460   0.000000   0.000000
                                        CHANNELS 3 Zrotation Xrotation Yrotation
                                        End Site
                                        {
                                            OFFSET   2.582190   0.000000   0.000000
                                        }
                                    }
                                }
                            }
                            JOINT LeftFinger1
                            {
                                OFFSET   8.364480   0.000000   3.252850
                                CHANNELS 3 Zrotation Xrotation Yrotation
                                JOINT LeftFinger11
                                {
                                    OFFSET   4.646930   0.000000   0.000000
                                    CHANNELS 3 Zrotation Xrotation Yrotation
                                    JOINT LeftFinger12
                                    {
                                        OFFSET   2.323460   0.000000   0.000000
                                        CHANNELS 3 Zrotation Xrotation Yrotation
                                        End Site
                                        {
                                            OFFSET   2.273050   0.000000   0.000000
                                        }
                                    }
                                }
                            }
                            JOINT LeftFinger2
                            {
                                OFFSET   8.364480   0.000016   1.078090
                                CHANNELS 3 Zrotation Xrotation Yrotation
                                JOINT LeftFinger21
                                {
                                    OFFSET   5.111620   0.000000   0.000000
                                    CHANNELS 3 Zrotation Xrotation Yrotation
                                    JOINT LeftFinger22
                                    {
                                        OFFSET   2.788160   0.000017   0.000000
                                        CHANNELS 3 Zrotation Xrotation Yrotation
                                        End Site
                                        {
                                            OFFSET   2.727660   0.000000   0.000000
                                        }
                                    }
                                }
                            }
                            JOINT LeftFinger3
                            {
                                OFFSET   7.899780   0.000015  -1.078090
                                CHANNELS 3 Zrotation Xrotation Yrotation
                                JOINT LeftFinger31
                                {
                                    OFFSET   4.646920   0.000000   0.000000
                                    CHANNELS 3 Zrotation Xrotation Yrotation
                                    JOINT LeftFinger32
                                    {
                                        OFFSET   2.323470   0.000000   0.000000
                                        CHANNELS 3 Zrotation Xrotation Yrotation
                                        End Site
                                        {
                                            OFFSET   2.273050   0.000000   0.000000
                                        }
                                    }
                                }
                            }
                            JOINT LeftFinger4
                            {
                                OFFSET   7.435090   0.000000  -3.252850
                                CHANNELS 3 Zrotation Xrotation Yrotation
                                JOINT LeftFinger41
                                {
                                    OFFSET   3.717550   0.000000   0.000000
                                    CHANNELS 3 Zrotation Xrotation Yrotation
                                    JOINT LeftFinger42
                                    {
                                        OFFSET   1.858760   0.000000   0.000000
                                        CHANNELS 3 Zrotation Xrotation Yrotation
                                        End Site
                                        {
                                            OFFSET   1.818440   0.000000   0.000000
                                        }
                                    }
                                }
                            }
                        }
                    }
                }
            }
            JOINT RightCollar
            {
                OFFSET  -3.911900  19.017000  -0.467062
                CHANNELS 3 Zrotation Xrotation Yrotation
                JOINT RightShoulder
                {
                    OFFSET -10.383700   0.000015   0.000000
                    CHANNELS 3 Zrotation Xrotation Yrotation
                    JOINT RightElbow
                    {
                        OFFSET -26.662100   0.001341   0.000385
                        CHANNELS 3 Zrotation Xrotation Yrotation
                        JOINT RightWrist
                        {
                            OFFSET -28.869000   0.000025  -0.000080
                            CHANNELS 3 Zrotation Xrotation Yrotation
                            JOINT RightFinger0
                            {
                                OFFSET  -2.044650  -2.323490   3.252850
                                CHANNELS 3 Zrotation Xrotation Yrotation
                                JOINT RightFinger01
                                {
                                    OFFSET  -3.088130   0.000000   0.000000
                                    CHANNELS 3 Zrotation Xrotation Yrotation
                                    JOINT RightFinger02
                                    {
                                        OFFSET  -2.639460   0.000000   0.000000
                                        CHANNELS 3 Zrotation Xrotation Yrotation
                                        End Site
                                        {
                                            OFFSET  -2.582190   0.000000   0.000000
                                        }
                                    }
                                }
                            }
                            JOINT RightFinger1
                            {
                                OFFSET  -8.364480   0.000000   3.252850
                                CHANNELS 3 Zrotation Xrotation Yrotation
                                JOINT RightFinger11
                                {
                                    OFFSET  -4.646930   0.000000   0.000000
                                    CHANNELS 3 Zrotation Xrotation Yrotation
                                    JOINT RightFinger12
                                    {
                                        OFFSET  -2.323470   0.000000   0.000000
                                        CHANNELS 3 Zrotation Xrotation Yrotation
                                        End Site
                                        {
                                            OFFSET  -2.273050   0.000000   0.000000
                                        }
                                    }
                                }
                            }
                            JOINT RightFinger2
                            {
                                OFFSET  -8.364480   0.000000   1.078090
                                CHANNELS 3 Zrotation Xrotation Yrotation
                                JOINT RightFinger21
                                {
                                    OFFSET  -5.111610   0.000000   0.000000
                                    CHANNELS 3 Zrotation Xrotation Yrotation
                                    JOINT RightFinger22
                                    {
                                        OFFSET  -2.788160   0.000000   0.000000
                                        CHANNELS 3 Zrotation Xrotation Yrotation
                                        End Site
                                        {
                                            OFFSET  -2.727660   0.000000   0.000000
                                        }
                                    }
                                }
                            }
                            JOINT RightFinger3
                            {
                                OFFSET  -7.899780   0.000000  -1.078090
                                CHANNELS 3 Zrotation Xrotation Yrotation
                                JOINT RightFinger31
                                {
                                    OFFSET  -4.646920   0.000000   0.000000
                                    CHANNELS 3 Zrotation Xrotation Yrotation
                                    JOINT RightFinger32
                                    {
                                        OFFSET  -2.323470   0.000000   0.000000
                                        CHANNELS 3 Zrotation Xrotation Yrotation
                                        End Site
                                        {
                                            OFFSET  -2.273050   0.000000   0.000000
                                        }
                                    }
                                }
                            }
                            JOINT RightFinger4
                            {
                                OFFSET  -7.435090   0.000000  -3.252850
                                CHANNELS 3 Zrotation Xrotation Yrotation
                                JOINT RightFinger41
                                {
                                    OFFSET  -3.717550   0.000000   0.000000
                                    CHANNELS 3 Zrotation Xrotation Yrotation
                                    JOINT RightFinger42
                                    {
                                        OFFSET  -1.858770   0.000000   0.000000
                                        CHANNELS 3 Zrotation Xrotation Yrotation
                                        End Site
                                        {
                                            OFFSET  -1.818440   0.000000   0.000000
                                        }
                                    }
                                }
                            }
                        }
                    }
                }
            }
        }
    }
    JOINT LeftHip
    {
        OFFSET   9.783010   0.000000   0.000000
        CHANNELS 3 Zrotation Xrotation Yrotation
        JOINT LeftKnee
        {
            OFFSET   0.000070 -41.789100   0.000028
            CHANNELS 3 Zrotation Xrotation Yrotation
            JOINT LeftAnkle
            {
                OFFSET   0.000087 -41.133200  -0.000100
                CHANNELS 3 Zrotation Xrotation Yrotation
                JOINT LeftToe
                {
                    OFFSET   0.000000  -6.358960  14.674500
                    CHANNELS 3 Zrotation Xrotation Yrotation
                    End Site
                    {
                        OFFSET   0.000000   0.000000   3.913200
                    }
                }
            }
        }
    }
    JOINT RightHip
    {
        OFFSET  -9.783020   0.000000   0.000000
        CHANNELS 3 Zrotation Xrotation Yrotation
        JOINT RightKnee
        {
            OFFSET   0.000044 -41.789100  -0.000870
            CHANNELS 3 Zrotation Xrotation Yrotation
            JOINT RightAnkle
            {
                OFFSET  -0.000090 -41.133200  -0.000245
                CHANNELS 3 Zrotation Xrotation Yrotation
                JOINT RightToe
                {
                    OFFSET   0.000000  -6.358960  14.674500
                    CHANNELS 3 Zrotation Xrotation Yrotation
                    End Site
                    {
                        OFFSET   0.000000   0.000000   3.913200
                    }
                }
            }
        }
    }
}
MOTION
Frames: 5
Frame Time:   0.016667
 -1.935360  89.282000   1.130390  -1.085080 -14.772400  -4.950690   0.688941  10.051500   0.314333   1.352900  20.106000   0.515866   1.266240   1.137870  -0.025269   2.083690   2.300760 -22.556000  -6.012630  -0.918869   9.101430 -77.144100  16.141200  -9.139390  -0.865155   0.950401 -16.072300   9.402380  -3.226410  -1.995030  39.753000  32.513800 -47.765500 -31.948000  -0.004261   0.007280 -10.974000  -0.002811   0.003136 -33.949700  -1.760590   2.612940 -27.810000   0.000146  -0.003739 -19.467000   0.000981  -0.002461 -25.006600  -4.233600   8.993850 -25.339500   0.029776   0.014553 -16.876100   0.015418   0.014243 -28.279500  -4.836940   8.905370 -38.272400  -0.000932   0.000848 -25.489400   0.012347   0.005766 -35.381800  -5.902910   8.240040 -53.712100   0.005592   0.001477 -35.772300   0.003961   0.002831   3.499140   1.378540  12.308100  67.373900  -6.802640  60.036100  -0.327742 -22.593500  94.811400   5.794430 -44.928900  20.297700 -36.271000  32.242400  76.178000  28.690200  -0.004946  -0.008730   9.345070  -0.002889   0.002949  81.904800   4.677430   0.650590  67.059500  -0.008253   0.001179  50.294600   0.001227   0.007316  89.094400   0.000567   0.002965  92.956300  -0.001170   0.004435  69.717400   0.000000   0.002915  88.996800  -5.002500  -0.080668  97.672300  -0.006169   0.007460  73.254200   0.000879   0.004629  88.984600  -9.995150  -0.176317 110.000000  -0.000087   0.000216  80.000000   0.000498  -0.000586   2.528440  14.840100   1.555230   0.519358   3.928900  13.544200  -4.331490  -3.735240  -2.145970   0.000000   0.000000  -0.000000   1.335300  10.733100  -1.964110  -1.481270  11.218100 -12.764500   2.569910  -7.556660   1.005900   0.000000   0.000000   0.000000
 -1.901110  89.281900   1.206900  -0.934597 -14.784600  -4.365600   0.652267  10.075400   0.393573   1.263010  20.154600   0.684776   1.212840   1.015970  -0.021668   1.995660   2.053010 -21.971700  -6.010150  -1.002990   9.056460 -77.144500  16.051700  -9.106300  -0.863345   0.942927 -16.100800   9.514080  -3.199830  -2.012860  39.868400  32.755500 -48.193800 -31.982700   0.009272   0.010783 -10.991400   0.006456  -0.008116 -34.003000  -1.810770   2.681100 -27.855300   0.016816   0.003624 -19.498700   0.010133   0.006577 -25.096200  -4.239800   8.970510 -25.428700   0.022933   0.010512 -16.935600   0.011943   0.010867 -28.278400  -4.835830   8.904950 -38.250400  -0.000932   0.000848 -25.474800   0.008686   0.004471 -35.430900  -5.909400   8.235250 -53.786000  -0.004685  -0.010631 -35.821500   0.001667  -0.006624   3.439470   1.248720  12.248700  66.972700  -7.168150  60.215900  -0.176229 -22.479900  94.901700   6.443660 -44.177000  20.435000 -35.602400  30.875600  74.851200  29.249000   0.006189  -0.009600   9.624510   0.002666   0.003054  84.491100   4.920540   0.460166  68.853100  -0.008194   0.001814  51.639800   0.001690   0.009829  89.047200   0.000521   0.002829  94.941600  -0.001381   0.005366  71.206300   0.000088   0.004145  88.996800  -5.002400  -0.080915  99.352000  -0.004995   0.007045  74.503100   0.000858   0.004053  88.984600  -9.995430  -0.176315 110.000000  -0.000082   0.000205  80.000000   0.000475  -0.000552   2.518940  14.841700   1.500160   0.541255   3.862170  13.174800  -4.331400  -3.687280  -2.278420  -0.000000   0.000000   0.000000   1.271510  10.833200  -2.122350  -1.397960  11.191300 -13.000300   2.579040  -7.605730   0.833687   0.000000   0.000000   0.000000
 -1.863900  89.281900   1.286780  -0.781247 -14.798100  -3.781630   0.614501  10.098700   0.468844   1.171520  20.201800   0.845838   1.145760   0.897882  -0.018137   1.885550   1.813890 -21.184000  -6.003160  -1.078800   8.989720 -77.139600  15.957300  -9.052480  -0.859657   0.921964 -16.115300   9.582090  -3.158880  -2.030670  40.028300  33.088100 -48.771700 -32.015800   0.022805   0.014323 -11.007900   0.015724  -0.019369 -34.035800  -1.840890   2.723150 -27.883000   0.033424   0.011964 -19.518100   0.019192   0.015769 -25.185700  -4.245990   8.947180 -25.518000   0.011583   0.003699 -16.995000   0.006158   0.005279 -28.277300  -4.834720   8.904530 -38.228400  -0.000932   0.000849 -25.460100   0.003380   0.001686 -35.466300  -5.914470   8.230440 -53.839000  -0.019009  -0.022802 -35.856800  -0.002576  -0.019600   3.368930   1.125730  12.150200  66.562000  -7.604080  60.437200   0.057350 -22.375700  95.102500   7.377010 -43.451400  20.702200 -34.956500  29.364000  73.540100  30.073000   0.017729  -0.010170  10.036500   0.008613   0.003153  86.912000   5.024950   0.269056  70.706000  -0.007782   0.002570  53.029500   0.002211   0.011005  89.000000   0.000476   0.002669  96.923000  -0.001525   0.005889  72.692300   0.000190   0.005017  88.996800  -5.002250  -0.081241 100.924000  -0.004061   0.006694  75.685100   0.000836   0.003785  88.984600  -9.995690  -0.176311 110.000000  -0.000073   0.000195  80.000000   0.000449  -0.000511   2.515490  14.851200   1.440290   0.545644   3.792710  12.812500  -4.334080  -3.635980  -2.413650  -0.000000   0.000000  -0.000000   1.201050  10.940200  -2.279480  -1.317600  11.160900 -13.244000   2.590370  -7.634790   0.672433  -0.000000   0.000000   0.000000
 -1.824960  89.282300   1.369250  -0.624944 -14.822300  -3.201160   0.577461  10.120800   0.523395   1.085310  20.246200   0.964396   1.058270   0.782553  -0.014592   1.741060   1.582830 -20.128700  -6.004610  -1.132580   8.960270 -77.119500  15.874300  -9.005080  -0.843260   0.883904 -16.113300   9.605760  -3.127940  -2.027370  40.084000  33.216800 -48.956700 -32.037700   0.022803   0.014366 -11.018900   0.015723  -0.019367 -34.057000  -1.833780   2.711360 -27.900000   0.033053   0.013104 -19.529900   0.018910   0.015950 -25.184900  -4.245920   8.947330 -25.517200   0.003627  -0.003350 -16.994500   0.002173   0.001049 -28.277200  -4.836940   8.908590 -38.233500  -0.000932   0.000850 -25.463500   0.002033  -0.002134 -35.477300  -5.919730   8.233760 -53.856300  -0.029605  -0.022875 -35.868300  -0.008080  -0.024233   3.251940   1.039570  12.075900  66.146100  -8.079370  60.732100   0.173754 -22.357700  95.323500   8.692110 -43.091600  21.151600 -34.461000  27.999600  72.525100  30.574500   0.018199  -0.010608  10.287300   0.009075   0.003242  88.564300   5.013250   0.129027  72.525600  -0.006643   0.003417  54.394200   0.002779   0.010924  89.000000   0.000427   0.002483  98.751800  -0.001601   0.006370  74.064100   0.000300   0.005272  88.996700  -5.002050  -0.081642 102.616000  -0.003372   0.006353  77.022000   0.000809   0.003401  88.984600  -9.995930  -0.176306 110.000000  -0.000032   0.000189  80.000000   0.000406  -0.000457   2.514430  14.876000   1.366710   0.542691   3.726360  12.473200  -4.341580  -3.581390  -2.556340  -0.000000   0.000000   0.000000   1.129110  11.075000  -2.405890  -1.242300  11.096800 -13.505200   2.592770  -7.628900   0.500686  -0.000000   0.000000  -0.000000
 -1.782560  89.283100   1.454400  -0.466475 -14.851800  -2.621360   0.539286  10.142600   0.570631   0.998097  20.289800   1.068230   0.962941   0.666235  -0.011265   1.583070   1.349410 -18.893300  -6.007400  -1.178960   8.928160 -77.082500  15.788200  -8.958820  -0.826407   0.841802 -16.100500   9.620050  -3.111410  -2.004670  40.099200  33.250700 -48.995000 -32.059500   0.022789   0.014372 -11.029800   0.015723  -0.019355 -34.075300  -1.820830   2.689590 -27.914700   0.030461   0.013267 -19.540200   0.016933   0.015975 -25.179200  -4.245410   8.948400 -25.511700  -0.006276  -0.007627 -16.990800  -0.003067  -0.003459 -28.277600  -4.848140   8.928730 -38.269100  -0.000931   0.000851 -25.487300  -0.000816  -0.006154 -35.485500  -5.933530   8.250770 -53.871600  -0.035112  -0.022885 -35.878500  -0.011634  -0.025344   3.123050   0.954864  11.992600  65.709900  -8.597120  61.044300   0.305179 -22.370400  95.634900  10.381500 -42.911700  21.774700 -34.220200  27.260800  72.029000  30.811000   0.018267  -0.010788  10.405500   0.009141   0.003325  89.292600   5.001400   0.062548  74.236800  -0.005391   0.004335  55.677600   0.003373   0.010362  89.000000   0.000381   0.002279 100.386000  -0.001621   0.006581  75.289800   0.000413   0.005309  88.996700  -5.001820  -0.082102 104.206000  -0.002846   0.005972  78.257800   0.000783   0.003041  88.984600  -9.996170  -0.176302 110.000000   0.000000   0.000180  80.000000   0.000364  -0.000406   2.506970  14.903800   1.289330   0.543067   3.666340  12.148200  -4.351710  -3.523730  -2.706470  -0.000000   0.000000   0.000000   1.050600  11.223400  -2.512930  -1.158410  11.021300 -13.805500   2.598610  -7.622930   0.347530   0.000000   0.000000  -0.000000
